<!DOCTYPE svg PUBLIC "-//W3C//DTD SVG 1.1//EN" "http://www.w3.org/Graphics/SVG/1.1/DTD/svg11.dtd">
<!-- Uploaded to: SVG Repo, www.svgrepo.com, Transformed by: SVG Repo Mixer Tools -->
<svg fill="#ffffff" width="800px" height="800px" viewBox="0 0 15.93 15.93" id="alert-triangle-16px" xmlns="http://www.w3.org/2000/svg" stroke="#ffffff" stroke-width="0.00015934">
<g id="SVGRepo_bgCarrier" stroke-width="0"/>
<g id="SVGRepo_tracerCarrier" stroke-linecap="round" stroke-linejoin="round" stroke="#CCCCCC" stroke-width="0.063736"/>
<g id="SVGRepo_iconCarrier"> <path id="Path_175" data-name="Path 175" d="M-11.036,16H-22.964a1.985,1.985,0,0,1-1.722-.981,1.985,1.985,0,0,1-.031-1.982l5.965-10.852A1.97,1.97,0,0,1-17,1.148a1.97,1.97,0,0,1,1.752,1.037l5.965,10.852a1.985,1.985,0,0,1-.031,1.982A1.985,1.985,0,0,1-11.036,16ZM-17,2.148a.987.987,0,0,0-.876.518l-5.965,10.852a.991.991,0,0,0,.016.991.993.993,0,0,0,.861.491h11.928a.993.993,0,0,0,.861-.491.989.989,0,0,0,.015-.991L-16.124,2.666A.987.987,0,0,0-17,2.148Zm.5,8.352v-6A.5.5,0,0,0-17,4a.5.5,0,0,0-.5.5v6a.5.5,0,0,0,.5.5A.5.5,0,0,0-16.5,10.5Zm0,3v-1A.5.5,0,0,0-17,12a.5.5,0,0,0-.5.5v1a.5.5,0,0,0,.5.5A.5.5,0,0,0-16.5,13.5Z" transform="translate(24.967 -1.148)"/> </g>
</svg>